<mxfile host="app.diagrams.net" modified="2023-04-24T10:47:37.055Z" agent="Mozilla/5.0 (Windows NT 10.0; Win64; x64) AppleWebKit/537.36 (KHTML, like Gecko) Chrome/112.0.0.0 Safari/537.36" etag="IM9LKE_R6OOAmiVKd6y-" version="21.1.7" type="github">
  <diagram name="Page-1" id="rAO9yvYla-4cvGf-Hs58">
    <mxGraphModel dx="6380" dy="2547" grid="1" gridSize="10" guides="1" tooltips="1" connect="1" arrows="1" fold="1" page="1" pageScale="1" pageWidth="1600" pageHeight="900" math="0" shadow="0">
      <root>
        <mxCell id="0" />
        <mxCell id="1" parent="0" />
        <mxCell id="dc2JVyiRhWIn0yOYXzVW-41" value="" style="group;flipH=0;flipV=1;strokeWidth=5;fontSize=16;fontFamily=Tahoma;fontStyle=1" vertex="1" connectable="0" parent="1">
          <mxGeometry x="-720" y="580" width="1920" height="60" as="geometry" />
        </mxCell>
        <mxCell id="dc2JVyiRhWIn0yOYXzVW-34" value="UpdatePaidUsers" style="whiteSpace=wrap;html=1;fillColor=#fff2cc;strokeColor=#d6b656;rounded=0;fontSize=16;flipH=0;flipV=1;strokeWidth=5;fontFamily=Tahoma;fontStyle=1" vertex="1" parent="dc2JVyiRhWIn0yOYXzVW-41">
          <mxGeometry x="840" width="200" height="60" as="geometry" />
        </mxCell>
        <mxCell id="dc2JVyiRhWIn0yOYXzVW-35" value="UpdateTrialUsers" style="whiteSpace=wrap;html=1;fillColor=#fff2cc;strokeColor=#d6b656;rounded=0;fontSize=16;flipH=0;flipV=1;strokeWidth=5;fontFamily=Tahoma;fontStyle=1" vertex="1" parent="dc2JVyiRhWIn0yOYXzVW-41">
          <mxGeometry x="570" width="210" height="60" as="geometry" />
        </mxCell>
        <mxCell id="dc2JVyiRhWIn0yOYXzVW-36" value="UpdateMangerDashboard" style="whiteSpace=wrap;html=1;fillColor=#fff2cc;strokeColor=#d6b656;rounded=0;fontSize=16;flipH=0;flipV=1;strokeWidth=5;fontFamily=Tahoma;fontStyle=1" vertex="1" parent="dc2JVyiRhWIn0yOYXzVW-41">
          <mxGeometry x="280" width="240" height="60" as="geometry" />
        </mxCell>
        <mxCell id="dc2JVyiRhWIn0yOYXzVW-37" value="&lt;div style=&quot;font-size: 16px; line-height: 19px;&quot;&gt;&lt;font style=&quot;font-size: 16px;&quot; color=&quot;#000000&quot;&gt;UpdateAnswerToQ&lt;/font&gt;&lt;/div&gt;" style="whiteSpace=wrap;html=1;fillColor=#fff2cc;strokeColor=#d6b656;rounded=0;fontSize=16;flipH=0;flipV=1;strokeWidth=5;fontFamily=Tahoma;fontStyle=1" vertex="1" parent="dc2JVyiRhWIn0yOYXzVW-41">
          <mxGeometry width="180" height="60" as="geometry" />
        </mxCell>
        <mxCell id="dc2JVyiRhWIn0yOYXzVW-38" value="UpdateOrgs" style="whiteSpace=wrap;html=1;fillColor=#fff2cc;strokeColor=#d6b656;rounded=0;fontSize=16;flipH=0;flipV=1;strokeWidth=5;fontFamily=Tahoma;fontStyle=1" vertex="1" parent="dc2JVyiRhWIn0yOYXzVW-41">
          <mxGeometry x="1470" width="200" height="60" as="geometry" />
        </mxCell>
        <mxCell id="dc2JVyiRhWIn0yOYXzVW-39" value="UpdateTotalUsers" style="whiteSpace=wrap;html=1;fillColor=#fff2cc;strokeColor=#d6b656;rounded=0;fontSize=16;flipH=0;flipV=1;strokeWidth=5;fontFamily=Tahoma;fontStyle=1" vertex="1" parent="dc2JVyiRhWIn0yOYXzVW-41">
          <mxGeometry x="1140" width="200" height="60" as="geometry" />
        </mxCell>
        <mxCell id="dc2JVyiRhWIn0yOYXzVW-40" value="Update Revenue" style="whiteSpace=wrap;html=1;fillColor=#fff2cc;strokeColor=#d6b656;rounded=0;fontSize=16;flipH=0;flipV=1;strokeWidth=5;fontFamily=Tahoma;fontStyle=1" vertex="1" parent="dc2JVyiRhWIn0yOYXzVW-41">
          <mxGeometry x="1810" width="200" height="60" as="geometry" />
        </mxCell>
        <mxCell id="dc2JVyiRhWIn0yOYXzVW-11" value="" style="edgeStyle=orthogonalEdgeStyle;rounded=0;orthogonalLoop=1;jettySize=auto;html=1;fontSize=16;exitX=0.5;exitY=0;exitDx=0;exitDy=0;strokeWidth=5;fontFamily=Tahoma;fontStyle=1" edge="1" parent="1" source="dc2JVyiRhWIn0yOYXzVW-1" target="dc2JVyiRhWIn0yOYXzVW-10">
          <mxGeometry relative="1" as="geometry" />
        </mxCell>
        <mxCell id="dc2JVyiRhWIn0yOYXzVW-79" style="edgeStyle=orthogonalEdgeStyle;rounded=0;orthogonalLoop=1;jettySize=auto;html=1;exitX=0.5;exitY=0;exitDx=0;exitDy=0;entryX=0.5;entryY=1;entryDx=0;entryDy=0;strokeWidth=5;" edge="1" parent="1" source="dc2JVyiRhWIn0yOYXzVW-1" target="dc2JVyiRhWIn0yOYXzVW-2">
          <mxGeometry relative="1" as="geometry" />
        </mxCell>
        <mxCell id="dc2JVyiRhWIn0yOYXzVW-80" style="edgeStyle=orthogonalEdgeStyle;rounded=0;orthogonalLoop=1;jettySize=auto;html=1;exitX=0.5;exitY=0;exitDx=0;exitDy=0;entryX=0.5;entryY=1;entryDx=0;entryDy=0;strokeWidth=5;" edge="1" parent="1" source="dc2JVyiRhWIn0yOYXzVW-1" target="dc2JVyiRhWIn0yOYXzVW-15">
          <mxGeometry relative="1" as="geometry" />
        </mxCell>
        <mxCell id="dc2JVyiRhWIn0yOYXzVW-81" style="edgeStyle=orthogonalEdgeStyle;rounded=0;orthogonalLoop=1;jettySize=auto;html=1;exitX=0.5;exitY=0;exitDx=0;exitDy=0;entryX=0.5;entryY=1;entryDx=0;entryDy=0;strokeWidth=5;" edge="1" parent="1" source="dc2JVyiRhWIn0yOYXzVW-1" target="dc2JVyiRhWIn0yOYXzVW-64">
          <mxGeometry relative="1" as="geometry" />
        </mxCell>
        <mxCell id="dc2JVyiRhWIn0yOYXzVW-82" style="edgeStyle=orthogonalEdgeStyle;rounded=0;orthogonalLoop=1;jettySize=auto;html=1;exitX=0.5;exitY=0;exitDx=0;exitDy=0;entryX=0.5;entryY=1;entryDx=0;entryDy=0;strokeWidth=5;" edge="1" parent="1" source="dc2JVyiRhWIn0yOYXzVW-1" target="dc2JVyiRhWIn0yOYXzVW-65">
          <mxGeometry relative="1" as="geometry" />
        </mxCell>
        <mxCell id="dc2JVyiRhWIn0yOYXzVW-84" style="edgeStyle=orthogonalEdgeStyle;rounded=0;orthogonalLoop=1;jettySize=auto;html=1;exitX=0.5;exitY=0;exitDx=0;exitDy=0;entryX=0.5;entryY=1;entryDx=0;entryDy=0;strokeWidth=5;" edge="1" parent="1" source="dc2JVyiRhWIn0yOYXzVW-1" target="dc2JVyiRhWIn0yOYXzVW-83">
          <mxGeometry relative="1" as="geometry" />
        </mxCell>
        <mxCell id="dc2JVyiRhWIn0yOYXzVW-1" value="&lt;font style=&quot;font-size: 16px;&quot;&gt;IPerson&lt;/font&gt;" style="rounded=0;whiteSpace=wrap;html=1;fillColor=#ffe6cc;strokeColor=#d79b00;fontSize=16;strokeWidth=5;fontFamily=Tahoma;fontStyle=1" vertex="1" parent="1">
          <mxGeometry x="-595" y="2039.8" width="490" height="50" as="geometry" />
        </mxCell>
        <mxCell id="dc2JVyiRhWIn0yOYXzVW-5" value="" style="edgeStyle=orthogonalEdgeStyle;rounded=0;orthogonalLoop=1;jettySize=auto;html=1;fontSize=16;exitX=0.5;exitY=0;exitDx=0;exitDy=0;entryX=0.5;entryY=1;entryDx=0;entryDy=0;strokeWidth=5;fontFamily=Tahoma;fontStyle=1;fillColor=#f8cecc;strokeColor=#FF6666;" edge="1" parent="1" source="dc2JVyiRhWIn0yOYXzVW-28" target="dc2JVyiRhWIn0yOYXzVW-37">
          <mxGeometry relative="1" as="geometry">
            <mxPoint x="-780" y="760" as="targetPoint" />
          </mxGeometry>
        </mxCell>
        <mxCell id="dc2JVyiRhWIn0yOYXzVW-73" value="&lt;font style=&quot;font-size: 16px;&quot;&gt;Update&amp;nbsp; Profile Questions of Super Admin Dashboard&lt;/font&gt;" style="edgeLabel;html=1;align=center;verticalAlign=middle;resizable=0;points=[];fontSize=16;fontFamily=Tahoma;fontStyle=1" vertex="1" connectable="0" parent="dc2JVyiRhWIn0yOYXzVW-5">
          <mxGeometry x="-0.1921" y="5" relative="1" as="geometry">
            <mxPoint y="90" as="offset" />
          </mxGeometry>
        </mxCell>
        <mxCell id="dc2JVyiRhWIn0yOYXzVW-29" value="" style="edgeStyle=orthogonalEdgeStyle;rounded=0;orthogonalLoop=1;jettySize=auto;html=1;fontSize=16;strokeWidth=5;fontFamily=Tahoma;fontStyle=1" edge="1" parent="1" source="dc2JVyiRhWIn0yOYXzVW-2" target="dc2JVyiRhWIn0yOYXzVW-28">
          <mxGeometry relative="1" as="geometry" />
        </mxCell>
        <mxCell id="dc2JVyiRhWIn0yOYXzVW-2" value="&lt;font style=&quot;font-size: 16px;&quot;&gt;UpdatePersonProfile&lt;/font&gt;" style="rounded=0;whiteSpace=wrap;html=1;fillColor=#dae8fc;strokeColor=#6c8ebf;fontSize=16;strokeWidth=5;fontFamily=Tahoma;fontStyle=1" vertex="1" parent="1">
          <mxGeometry x="-1320" y="1839.8" width="260" height="60" as="geometry" />
        </mxCell>
        <mxCell id="dc2JVyiRhWIn0yOYXzVW-6" value="Analytic Publisher" style="rounded=1;whiteSpace=wrap;html=1;fontSize=16;fillColor=#d80073;fontColor=#ffffff;strokeColor=#A50040;strokeWidth=5;fontFamily=Tahoma;fontStyle=1" vertex="1" parent="1">
          <mxGeometry x="30" y="370" width="380" height="70" as="geometry" />
        </mxCell>
        <mxCell id="dc2JVyiRhWIn0yOYXzVW-14" value="" style="edgeStyle=orthogonalEdgeStyle;rounded=0;orthogonalLoop=1;jettySize=auto;html=1;fontSize=16;strokeWidth=5;fontFamily=Tahoma;fontStyle=1" edge="1" parent="1" source="dc2JVyiRhWIn0yOYXzVW-10" target="dc2JVyiRhWIn0yOYXzVW-13">
          <mxGeometry relative="1" as="geometry" />
        </mxCell>
        <mxCell id="dc2JVyiRhWIn0yOYXzVW-10" value="&lt;font style=&quot;font-size: 16px;&quot;&gt;UpgradeSubscriptionSuccessfulPayment&lt;/font&gt;" style="whiteSpace=wrap;html=1;fillColor=#dae8fc;strokeColor=#6c8ebf;rounded=0;fontSize=16;strokeWidth=5;fontFamily=Tahoma;fontStyle=1" vertex="1" parent="1">
          <mxGeometry x="-980" y="1839.8" width="370" height="60" as="geometry" />
        </mxCell>
        <mxCell id="dc2JVyiRhWIn0yOYXzVW-47" style="edgeStyle=orthogonalEdgeStyle;rounded=0;orthogonalLoop=1;jettySize=auto;html=1;entryX=0.5;entryY=1;entryDx=0;entryDy=0;exitX=0.5;exitY=0;exitDx=0;exitDy=0;strokeColor=#FF6666;strokeWidth=5;fontSize=16;fontFamily=Tahoma;fontStyle=1" edge="1" parent="1" source="dc2JVyiRhWIn0yOYXzVW-13" target="dc2JVyiRhWIn0yOYXzVW-35">
          <mxGeometry relative="1" as="geometry" />
        </mxCell>
        <mxCell id="dc2JVyiRhWIn0yOYXzVW-48" style="edgeStyle=orthogonalEdgeStyle;rounded=0;orthogonalLoop=1;jettySize=auto;html=1;entryX=0.5;entryY=1;entryDx=0;entryDy=0;exitX=0.5;exitY=0;exitDx=0;exitDy=0;strokeColor=#FF6666;strokeWidth=5;fontSize=16;fontFamily=Tahoma;fontStyle=1" edge="1" parent="1" source="dc2JVyiRhWIn0yOYXzVW-13" target="dc2JVyiRhWIn0yOYXzVW-34">
          <mxGeometry relative="1" as="geometry" />
        </mxCell>
        <mxCell id="dc2JVyiRhWIn0yOYXzVW-49" style="edgeStyle=orthogonalEdgeStyle;rounded=0;orthogonalLoop=1;jettySize=auto;html=1;exitX=0.5;exitY=0;exitDx=0;exitDy=0;entryX=0.5;entryY=1;entryDx=0;entryDy=0;strokeColor=#FF6666;strokeWidth=5;fontSize=16;fontFamily=Tahoma;fontStyle=1" edge="1" parent="1" source="dc2JVyiRhWIn0yOYXzVW-13" target="dc2JVyiRhWIn0yOYXzVW-39">
          <mxGeometry relative="1" as="geometry" />
        </mxCell>
        <mxCell id="dc2JVyiRhWIn0yOYXzVW-50" style="edgeStyle=orthogonalEdgeStyle;rounded=0;orthogonalLoop=1;jettySize=auto;html=1;exitX=0.5;exitY=0;exitDx=0;exitDy=0;entryX=0.75;entryY=1;entryDx=0;entryDy=0;strokeColor=#FF6666;strokeWidth=5;fontSize=16;fontFamily=Tahoma;fontStyle=1" edge="1" parent="1" source="dc2JVyiRhWIn0yOYXzVW-13" target="dc2JVyiRhWIn0yOYXzVW-36">
          <mxGeometry relative="1" as="geometry" />
        </mxCell>
        <mxCell id="dc2JVyiRhWIn0yOYXzVW-74" value="Update Paid or Trial of manager dashboard" style="edgeLabel;html=1;align=center;verticalAlign=middle;resizable=0;points=[];fontSize=16;fontFamily=Tahoma;fontStyle=1" vertex="1" connectable="0" parent="dc2JVyiRhWIn0yOYXzVW-50">
          <mxGeometry x="0.8058" y="3" relative="1" as="geometry">
            <mxPoint y="1" as="offset" />
          </mxGeometry>
        </mxCell>
        <mxCell id="dc2JVyiRhWIn0yOYXzVW-13" value="&lt;font style=&quot;font-size: 16px;&quot;&gt;OnUserWarmedUp&lt;/font&gt;" style="whiteSpace=wrap;html=1;fillColor=#f8cecc;strokeColor=#b85450;rounded=0;fontSize=16;strokeWidth=5;fontFamily=Tahoma;fontStyle=1" vertex="1" parent="1">
          <mxGeometry x="-680" y="1549.8" width="262.5" height="55" as="geometry" />
        </mxCell>
        <mxCell id="dc2JVyiRhWIn0yOYXzVW-67" style="edgeStyle=orthogonalEdgeStyle;rounded=0;orthogonalLoop=1;jettySize=auto;html=1;exitX=0.5;exitY=0;exitDx=0;exitDy=0;entryX=0.5;entryY=1;entryDx=0;entryDy=0;strokeWidth=5;fontSize=16;fontFamily=Tahoma;fontStyle=1" edge="1" parent="1" source="dc2JVyiRhWIn0yOYXzVW-15" target="dc2JVyiRhWIn0yOYXzVW-13">
          <mxGeometry relative="1" as="geometry" />
        </mxCell>
        <mxCell id="dc2JVyiRhWIn0yOYXzVW-15" value="UpgradeSubscriptionServerSide" style="whiteSpace=wrap;html=1;fillColor=#dae8fc;strokeColor=#6c8ebf;rounded=0;fontSize=16;strokeWidth=5;fontFamily=Tahoma;fontStyle=1" vertex="1" parent="1">
          <mxGeometry x="-520" y="1839.8" width="340" height="60" as="geometry" />
        </mxCell>
        <mxCell id="dc2JVyiRhWIn0yOYXzVW-30" value="" style="edgeStyle=orthogonalEdgeStyle;rounded=0;orthogonalLoop=1;jettySize=auto;html=1;fontSize=16;strokeWidth=5;fontFamily=Tahoma;fontStyle=1" edge="1" parent="1" source="dc2JVyiRhWIn0yOYXzVW-2" target="dc2JVyiRhWIn0yOYXzVW-28">
          <mxGeometry relative="1" as="geometry">
            <mxPoint x="-1360" y="1679.8" as="sourcePoint" />
            <mxPoint x="-1360" y="1489.8" as="targetPoint" />
          </mxGeometry>
        </mxCell>
        <mxCell id="dc2JVyiRhWIn0yOYXzVW-28" value="&lt;font style=&quot;font-size: 16px;&quot;&gt;OnUserUpdate&lt;/font&gt;" style="whiteSpace=wrap;html=1;fillColor=#f8cecc;strokeColor=#b85450;rounded=0;fontSize=16;strokeWidth=5;fontFamily=Tahoma;fontStyle=1" vertex="1" parent="1">
          <mxGeometry x="-1312.5" y="1549.8" width="245" height="55" as="geometry" />
        </mxCell>
        <mxCell id="dc2JVyiRhWIn0yOYXzVW-52" style="edgeStyle=orthogonalEdgeStyle;rounded=0;orthogonalLoop=1;jettySize=auto;html=1;exitX=0.5;exitY=0;exitDx=0;exitDy=0;strokeWidth=5;strokeColor=#FF3399;fontSize=16;fontFamily=Tahoma;fontStyle=1" edge="1" parent="1" source="dc2JVyiRhWIn0yOYXzVW-37" target="dc2JVyiRhWIn0yOYXzVW-6">
          <mxGeometry relative="1" as="geometry" />
        </mxCell>
        <mxCell id="dc2JVyiRhWIn0yOYXzVW-57" style="edgeStyle=orthogonalEdgeStyle;rounded=0;orthogonalLoop=1;jettySize=auto;html=1;exitX=0.5;exitY=0;exitDx=0;exitDy=0;entryX=0.5;entryY=1;entryDx=0;entryDy=0;strokeWidth=5;strokeColor=#FF3399;fontSize=16;fontFamily=Tahoma;fontStyle=1" edge="1" parent="1" source="dc2JVyiRhWIn0yOYXzVW-36" target="dc2JVyiRhWIn0yOYXzVW-6">
          <mxGeometry relative="1" as="geometry" />
        </mxCell>
        <mxCell id="dc2JVyiRhWIn0yOYXzVW-58" style="edgeStyle=orthogonalEdgeStyle;rounded=0;orthogonalLoop=1;jettySize=auto;html=1;exitX=0.5;exitY=0;exitDx=0;exitDy=0;entryX=0.5;entryY=1;entryDx=0;entryDy=0;strokeWidth=5;strokeColor=#FF3399;fontSize=16;fontFamily=Tahoma;fontStyle=1" edge="1" parent="1" source="dc2JVyiRhWIn0yOYXzVW-35" target="dc2JVyiRhWIn0yOYXzVW-6">
          <mxGeometry relative="1" as="geometry" />
        </mxCell>
        <mxCell id="dc2JVyiRhWIn0yOYXzVW-59" style="edgeStyle=orthogonalEdgeStyle;rounded=0;orthogonalLoop=1;jettySize=auto;html=1;exitX=0.5;exitY=0;exitDx=0;exitDy=0;entryX=0.5;entryY=1;entryDx=0;entryDy=0;strokeWidth=5;strokeColor=#FF3399;fontSize=16;fontFamily=Tahoma;fontStyle=1" edge="1" parent="1" source="dc2JVyiRhWIn0yOYXzVW-34" target="dc2JVyiRhWIn0yOYXzVW-6">
          <mxGeometry relative="1" as="geometry" />
        </mxCell>
        <mxCell id="dc2JVyiRhWIn0yOYXzVW-60" style="edgeStyle=orthogonalEdgeStyle;rounded=0;orthogonalLoop=1;jettySize=auto;html=1;exitX=0.5;exitY=0;exitDx=0;exitDy=0;strokeWidth=5;strokeColor=#FF3399;fontSize=16;fontFamily=Tahoma;fontStyle=1" edge="1" parent="1" source="dc2JVyiRhWIn0yOYXzVW-39" target="dc2JVyiRhWIn0yOYXzVW-6">
          <mxGeometry relative="1" as="geometry" />
        </mxCell>
        <mxCell id="dc2JVyiRhWIn0yOYXzVW-62" style="edgeStyle=orthogonalEdgeStyle;rounded=0;orthogonalLoop=1;jettySize=auto;html=1;exitX=0.5;exitY=0;exitDx=0;exitDy=0;entryX=0.5;entryY=1;entryDx=0;entryDy=0;strokeWidth=5;strokeColor=#FF3399;fontSize=16;fontFamily=Tahoma;fontStyle=1" edge="1" parent="1" source="dc2JVyiRhWIn0yOYXzVW-38" target="dc2JVyiRhWIn0yOYXzVW-6">
          <mxGeometry relative="1" as="geometry" />
        </mxCell>
        <mxCell id="dc2JVyiRhWIn0yOYXzVW-63" style="edgeStyle=orthogonalEdgeStyle;rounded=0;orthogonalLoop=1;jettySize=auto;html=1;exitX=0.5;exitY=0;exitDx=0;exitDy=0;entryX=0.5;entryY=1;entryDx=0;entryDy=0;strokeWidth=5;strokeColor=#FF3399;fontSize=16;fontFamily=Tahoma;fontStyle=1" edge="1" parent="1" source="dc2JVyiRhWIn0yOYXzVW-40" target="dc2JVyiRhWIn0yOYXzVW-6">
          <mxGeometry relative="1" as="geometry" />
        </mxCell>
        <mxCell id="dc2JVyiRhWIn0yOYXzVW-69" style="edgeStyle=orthogonalEdgeStyle;rounded=0;orthogonalLoop=1;jettySize=auto;html=1;exitX=0.5;exitY=0;exitDx=0;exitDy=0;entryX=0.5;entryY=1;entryDx=0;entryDy=0;strokeWidth=5;fontSize=16;fontFamily=Tahoma;fontStyle=1" edge="1" parent="1" source="dc2JVyiRhWIn0yOYXzVW-64" target="dc2JVyiRhWIn0yOYXzVW-68">
          <mxGeometry relative="1" as="geometry" />
        </mxCell>
        <mxCell id="dc2JVyiRhWIn0yOYXzVW-64" value="Invite Request" style="whiteSpace=wrap;html=1;fillColor=#dae8fc;strokeColor=#6c8ebf;rounded=0;fontSize=16;strokeWidth=5;fontFamily=Tahoma;fontStyle=1" vertex="1" parent="1">
          <mxGeometry x="-80" y="1839.8" width="340" height="60" as="geometry" />
        </mxCell>
        <mxCell id="dc2JVyiRhWIn0yOYXzVW-76" style="edgeStyle=orthogonalEdgeStyle;rounded=0;orthogonalLoop=1;jettySize=auto;html=1;exitX=0.5;exitY=0;exitDx=0;exitDy=0;entryX=0.5;entryY=1;entryDx=0;entryDy=0;fontSize=16;strokeWidth=5;" edge="1" parent="1" source="dc2JVyiRhWIn0yOYXzVW-65" target="dc2JVyiRhWIn0yOYXzVW-75">
          <mxGeometry relative="1" as="geometry" />
        </mxCell>
        <mxCell id="dc2JVyiRhWIn0yOYXzVW-65" value="Renew Subscription" style="whiteSpace=wrap;html=1;fillColor=#dae8fc;strokeColor=#6c8ebf;rounded=0;fontSize=16;strokeWidth=5;fontFamily=Tahoma;fontStyle=1" vertex="1" parent="1">
          <mxGeometry x="320" y="1839.8" width="340" height="60" as="geometry" />
        </mxCell>
        <mxCell id="dc2JVyiRhWIn0yOYXzVW-70" style="edgeStyle=orthogonalEdgeStyle;rounded=0;orthogonalLoop=1;jettySize=auto;html=1;exitX=0.5;exitY=0;exitDx=0;exitDy=0;entryX=0.326;entryY=-0.089;entryDx=0;entryDy=0;entryPerimeter=0;strokeWidth=5;strokeColor=#1C14FF;fontSize=16;fontFamily=Tahoma;fontStyle=1" edge="1" parent="1" source="dc2JVyiRhWIn0yOYXzVW-68" target="dc2JVyiRhWIn0yOYXzVW-36">
          <mxGeometry relative="1" as="geometry" />
        </mxCell>
        <mxCell id="dc2JVyiRhWIn0yOYXzVW-71" value="&lt;font style=&quot;font-size: 16px;&quot;&gt;Update Invited Users Number&lt;/font&gt;" style="edgeLabel;html=1;align=center;verticalAlign=middle;resizable=0;points=[];fontSize=16;fontFamily=Tahoma;fontStyle=1" vertex="1" connectable="0" parent="dc2JVyiRhWIn0yOYXzVW-70">
          <mxGeometry x="-0.7814" y="5" relative="1" as="geometry">
            <mxPoint x="5" y="50" as="offset" />
          </mxGeometry>
        </mxCell>
        <mxCell id="dc2JVyiRhWIn0yOYXzVW-68" value="&lt;font style=&quot;font-size: 16px;&quot;&gt;UpdateManagerDashboard&lt;br style=&quot;font-size: 16px;&quot;&gt;&lt;/font&gt;" style="whiteSpace=wrap;html=1;fillColor=#f8cecc;strokeColor=#b85450;rounded=0;fontSize=16;strokeWidth=5;fontFamily=Tahoma;fontStyle=1" vertex="1" parent="1">
          <mxGeometry x="-41.25" y="1549.8" width="262.5" height="55" as="geometry" />
        </mxCell>
        <mxCell id="dc2JVyiRhWIn0yOYXzVW-88" style="edgeStyle=orthogonalEdgeStyle;rounded=0;orthogonalLoop=1;jettySize=auto;html=1;exitX=0.5;exitY=0;exitDx=0;exitDy=0;entryX=0.5;entryY=1;entryDx=0;entryDy=0;strokeWidth=5;strokeColor=#FF6666;" edge="1" parent="1" source="dc2JVyiRhWIn0yOYXzVW-75" target="dc2JVyiRhWIn0yOYXzVW-40">
          <mxGeometry relative="1" as="geometry" />
        </mxCell>
        <mxCell id="dc2JVyiRhWIn0yOYXzVW-75" value="&lt;font style=&quot;font-size: 16px;&quot;&gt;OnUserRenewed&lt;br style=&quot;font-size: 16px;&quot;&gt;&lt;/font&gt;" style="whiteSpace=wrap;html=1;fillColor=#f8cecc;strokeColor=#b85450;rounded=0;fontSize=16;strokeWidth=5;fontFamily=Tahoma;fontStyle=1" vertex="1" parent="1">
          <mxGeometry x="358.75" y="1549.8" width="262.5" height="55" as="geometry" />
        </mxCell>
        <mxCell id="dc2JVyiRhWIn0yOYXzVW-91" style="edgeStyle=orthogonalEdgeStyle;rounded=0;orthogonalLoop=1;jettySize=auto;html=1;exitX=0.5;exitY=0;exitDx=0;exitDy=0;entryX=0.5;entryY=1;entryDx=0;entryDy=0;strokeWidth=5;" edge="1" parent="1" source="dc2JVyiRhWIn0yOYXzVW-83" target="dc2JVyiRhWIn0yOYXzVW-89">
          <mxGeometry relative="1" as="geometry" />
        </mxCell>
        <mxCell id="dc2JVyiRhWIn0yOYXzVW-83" value="RenewSubscriptionOrganizationBilling" style="whiteSpace=wrap;html=1;fillColor=#dae8fc;strokeColor=#6c8ebf;rounded=0;fontSize=16;strokeWidth=5;fontFamily=Tahoma;fontStyle=1" vertex="1" parent="1">
          <mxGeometry x="720" y="1839.8" width="340" height="60" as="geometry" />
        </mxCell>
        <mxCell id="dc2JVyiRhWIn0yOYXzVW-92" style="edgeStyle=orthogonalEdgeStyle;rounded=0;orthogonalLoop=1;jettySize=auto;html=1;exitX=0.5;exitY=0;exitDx=0;exitDy=0;entryX=0.5;entryY=1;entryDx=0;entryDy=0;strokeWidth=5;strokeColor=#FF6666;" edge="1" parent="1" source="dc2JVyiRhWIn0yOYXzVW-89" target="dc2JVyiRhWIn0yOYXzVW-40">
          <mxGeometry relative="1" as="geometry" />
        </mxCell>
        <mxCell id="dc2JVyiRhWIn0yOYXzVW-89" value="&lt;font style=&quot;font-size: 16px;&quot;&gt;OnUserRenewed&lt;br style=&quot;font-size: 16px;&quot;&gt;&lt;/font&gt;" style="whiteSpace=wrap;html=1;fillColor=#f8cecc;strokeColor=#b85450;rounded=0;fontSize=16;strokeWidth=5;fontFamily=Tahoma;fontStyle=1" vertex="1" parent="1">
          <mxGeometry x="758.75" y="1549.8" width="262.5" height="55" as="geometry" />
        </mxCell>
        <mxCell id="dc2JVyiRhWIn0yOYXzVW-93" value="&lt;font style=&quot;font-size: 16px;&quot;&gt;OnUserInvitedByManager&lt;br style=&quot;font-size: 16px;&quot;&gt;&lt;/font&gt;" style="whiteSpace=wrap;html=1;fillColor=#f8cecc;strokeColor=#b85450;rounded=0;fontSize=16;strokeWidth=5;fontFamily=Tahoma;fontStyle=1" vertex="1" parent="1">
          <mxGeometry x="1150" y="1549.8" width="262.5" height="55" as="geometry" />
        </mxCell>
        <mxCell id="dc2JVyiRhWIn0yOYXzVW-94" value="&lt;font style=&quot;font-size: 16px;&quot;&gt;OnUserDelete&lt;br style=&quot;font-size: 16px;&quot;&gt;&lt;/font&gt;" style="whiteSpace=wrap;html=1;fillColor=#f8cecc;strokeColor=#b85450;rounded=0;fontSize=16;strokeWidth=5;fontFamily=Tahoma;fontStyle=1" vertex="1" parent="1">
          <mxGeometry x="1500" y="1549.8" width="262.5" height="55" as="geometry" />
        </mxCell>
        <mxCell id="dc2JVyiRhWIn0yOYXzVW-96" style="edgeStyle=orthogonalEdgeStyle;rounded=0;orthogonalLoop=1;jettySize=auto;html=1;exitX=0.5;exitY=0;exitDx=0;exitDy=0;entryX=0.5;entryY=1;entryDx=0;entryDy=0;strokeColor=#33FF33;strokeWidth=5;" edge="1" parent="1" source="dc2JVyiRhWIn0yOYXzVW-95" target="dc2JVyiRhWIn0yOYXzVW-38">
          <mxGeometry relative="1" as="geometry" />
        </mxCell>
        <mxCell id="dc2JVyiRhWIn0yOYXzVW-95" value="&lt;font style=&quot;font-size: 16px;&quot;&gt;IOrganization&lt;br&gt;&lt;/font&gt;" style="rounded=0;whiteSpace=wrap;html=1;fillColor=#d5e8d4;strokeColor=#82b366;fontSize=16;strokeWidth=5;fontFamily=Tahoma;fontStyle=1" vertex="1" parent="1">
          <mxGeometry x="2130" y="1552.3000000000002" width="490" height="50" as="geometry" />
        </mxCell>
      </root>
    </mxGraphModel>
  </diagram>
</mxfile>
